<svg width="20" height="20" viewBox="0 0 20 20" fill="none" xmlns="http://www.w3.org/2000/svg">
<path d="M11.2483 1.66666H7.08166C6.39131 1.66666 5.83167 2.2263 5.83167 2.91666C5.83167 3.60701 6.39131 4.16666 7.08166 4.16666H11.2483C11.9387 4.16666 12.4983 3.60701 12.4983 2.91666C12.4983 2.2263 11.9387 1.66666 11.2483 1.66666Z" stroke="#757A8A" stroke-width="1.2" stroke-linecap="round" stroke-linejoin="round"/>
<path d="M5.83167 12.5H8.68879M5.83167 9.16666H12.4983" stroke="#757A8A" stroke-width="1.2" stroke-linecap="round" stroke-linejoin="round"/>
<path d="M15.8317 10.8329L15.8318 7.90218C15.8318 5.54519 15.8318 4.36669 15.0995 3.63446C14.5651 3.10005 13.793 2.95566 12.4985 2.91666M11.665 18.3329H7.49841C5.1414 18.3329 3.96288 18.3329 3.23065 17.6007C2.49842 16.8684 2.49841 15.6899 2.49841 13.3329L2.49842 7.90223C2.49841 5.5452 2.49841 4.36669 3.23065 3.63446C3.76505 3.10005 4.53717 2.95566 5.83166 2.91666" stroke="#757A8A" stroke-width="1.2" stroke-linecap="round" stroke-linejoin="round"/>
<path d="M17.4983 15.8333H14.9983M14.9983 15.8333H12.4983M14.9983 15.8333V18.3333M14.9983 15.8333V13.3333" stroke="#757A8A" stroke-width="1.2" stroke-linecap="round" stroke-linejoin="round"/>
</svg>
