<svg width="20" height="20" viewBox="0 0 20 20" fill="none" xmlns="http://www.w3.org/2000/svg">
<path d="M9.99996 10.4166L17.5 5.83331M9.99996 10.4166L2.49996 5.83331M9.99996 10.4166V18.75M1.66663 8.55103V11.4489C1.66663 12.44 1.66663 12.9355 1.80881 13.3807C1.93464 13.7747 2.14059 14.1385 2.41371 14.4491C2.72235 14.8001 3.14725 15.055 3.99705 15.5649L7.53038 17.6849C8.42828 18.2236 8.87723 18.493 9.35649 18.5983C9.78042 18.6913 10.2195 18.6913 10.6434 18.5983C11.1227 18.493 11.5716 18.2236 12.4695 17.6849L16.0029 15.5649C16.8527 15.055 17.2776 14.8001 17.5862 14.4491C17.8593 14.1385 18.0653 13.7747 18.1911 13.3807C18.3333 12.9355 18.3333 12.44 18.3333 11.4489V8.55103C18.3333 7.56 18.3333 7.06449 18.1911 6.61924C18.0653 6.22523 17.8593 5.86149 17.5862 5.55088C17.2776 5.19988 16.8527 4.94494 16.0029 4.43506L12.4695 2.31506C11.5716 1.77632 11.1227 1.50695 10.6434 1.4017C10.2195 1.30861 9.78042 1.30861 9.35649 1.4017C8.87723 1.50695 8.42828 1.77632 7.53038 2.31506L3.99705 4.43506C3.14725 4.94494 2.72235 5.19988 2.41371 5.55088C2.14059 5.86149 1.93464 6.22523 1.80881 6.61924C1.66663 7.06449 1.66663 7.56 1.66663 8.55103Z" stroke="#757A8A" stroke-width="1.2" stroke-linecap="round" stroke-linejoin="round"/>
</svg>
