<svg width="20" height="20" viewBox="0 0 20 20" fill="none" xmlns="http://www.w3.org/2000/svg">
<path d="M7.75 14.8C7.75 14.8 8.5 15.2 10 15.2M10 15.2C11.5 15.2 12.25 14.8 12.25 14.8M10 15.2V11.6M16 8.4C16 4.86538 13.3137 2 10 2C6.68629 2 4 4.86538 4 8.4C4 10.7464 5.65258 12.6217 6.76363 13.6173C7.34995 14.1427 7.75 14.874 7.75 15.6613V15.75C7.75 16.9926 8.75736 18 10 18V18C11.2426 18 12.25 16.9926 12.25 15.75V15.6733C12.25 14.88 12.6588 14.1441 13.2524 13.6177C14.3633 12.6329 16 10.7783 16 8.4Z" stroke="#3C40BC" stroke-width="1.5" stroke-linecap="round" stroke-linejoin="round"/>
</svg>
