<svg width="20" height="20" viewBox="0 0 20 20" fill="none" xmlns="http://www.w3.org/2000/svg">
<path d="M6.66663 0.833313V3.33331M13.3333 0.833313V3.33331M14.1666 6.66665H5.83329M9.66663 18.3333H10.3333C13.1336 18.3333 14.5337 18.3333 15.6032 17.7883C16.5441 17.309 17.309 16.5441 17.7883 15.6033C18.3333 14.5337 18.3333 13.1336 18.3333 10.3333V9.66665C18.3333 6.86638 18.3333 5.46625 17.7883 4.39669C17.309 3.45588 16.5441 2.69098 15.6032 2.21161C14.5337 1.66665 13.1336 1.66665 10.3333 1.66665H9.66663C6.86636 1.66665 5.46623 1.66665 4.39667 2.21161C3.45586 2.69098 2.69096 3.45588 2.21159 4.39669C1.66663 5.46625 1.66663 6.86638 1.66663 9.66665V10.3333C1.66663 13.1336 1.66663 14.5337 2.21159 15.6033C2.69096 16.5441 3.45586 17.309 4.39667 17.7883C5.46623 18.3333 6.86636 18.3333 9.66663 18.3333Z" stroke="#757A8A" stroke-width="1.2" stroke-linecap="round" stroke-linejoin="round"/>
</svg>
