<svg width="20" height="20" viewBox="0 0 20 20" fill="none" xmlns="http://www.w3.org/2000/svg">
<path d="M1.66663 4.33335C1.66663 3.39993 1.66663 2.93322 1.84828 2.5767C2.00807 2.2631 2.26304 2.00813 2.57664 1.84834C2.93316 1.66669 3.39987 1.66669 4.33329 1.66669H5.66663C6.60005 1.66669 7.06676 1.66669 7.42328 1.84834C7.73688 2.00813 7.99185 2.2631 8.15164 2.5767C8.33329 2.93322 8.33329 3.39993 8.33329 4.33335V7.33335C8.33329 8.26677 8.33329 8.73348 8.15164 9.09C7.99185 9.40361 7.73688 9.65858 7.42328 9.81836C7.06676 10 6.60005 10 5.66663 10H4.33329C3.39987 10 2.93316 10 2.57664 9.81836C2.26304 9.65858 2.00807 9.40361 1.84828 9.09C1.66663 8.73348 1.66663 8.26677 1.66663 7.33335V4.33335Z" stroke="#757A8A" stroke-width="1.2" stroke-linecap="round" stroke-linejoin="round"/>
<path d="M1.66663 15.8334C1.66663 15.0568 1.66663 14.6685 1.79349 14.3622C1.96265 13.9538 2.28711 13.6294 2.69549 13.4602C3.00177 13.3334 3.39006 13.3334 4.16663 13.3334H5.83329C6.60986 13.3334 6.99815 13.3334 7.30443 13.4602C7.71281 13.6294 8.03727 13.9538 8.20643 14.3622C8.33329 14.6685 8.33329 15.0568 8.33329 15.8334V15.8334C8.33329 16.6099 8.33329 16.9982 8.20643 17.3045C8.03727 17.7129 7.71281 18.0373 7.30443 18.2065C6.99815 18.3334 6.60986 18.3334 5.83329 18.3334H4.16662C3.39006 18.3334 3.00177 18.3334 2.69549 18.2065C2.28711 18.0373 1.96265 17.7129 1.79349 17.3045C1.66663 16.9982 1.66663 16.6099 1.66663 15.8334V15.8334Z" stroke="#757A8A" stroke-width="1.2" stroke-linecap="round" stroke-linejoin="round"/>
<path d="M11.6666 4.16669C11.6666 3.39012 11.6666 3.00183 11.7935 2.69555C11.9626 2.28717 12.2871 1.96271 12.6955 1.79355C13.0018 1.66669 13.3901 1.66669 14.1666 1.66669H15.8333C16.6099 1.66669 16.9981 1.66669 17.3044 1.79355C17.7128 1.96271 18.0373 2.28717 18.2064 2.69555C18.3333 3.00183 18.3333 3.39012 18.3333 4.16669V4.16669C18.3333 4.94326 18.3333 5.33154 18.2064 5.63783C18.0373 6.04621 17.7128 6.37066 17.3044 6.53982C16.9981 6.66669 16.6099 6.66669 15.8333 6.66669H14.1666C13.3901 6.66669 13.0018 6.66669 12.6955 6.53982C12.2871 6.37066 11.9626 6.04621 11.7935 5.63783C11.6666 5.33154 11.6666 4.94326 11.6666 4.16669V4.16669Z" stroke="#757A8A" stroke-width="1.2" stroke-linecap="round" stroke-linejoin="round"/>
<path d="M11.6666 12.6667C11.6666 11.7333 11.6666 11.2666 11.8483 10.91C12.0081 10.5964 12.263 10.3415 12.5766 10.1817C12.9332 10 13.3999 10 14.3333 10H15.6666C16.6 10 17.0668 10 17.4233 10.1817C17.7369 10.3415 17.9918 10.5964 18.1516 10.91C18.3333 11.2666 18.3333 11.7333 18.3333 12.6667V15.6667C18.3333 16.6001 18.3333 17.0668 18.1516 17.4233C17.9918 17.7369 17.7369 17.9919 17.4233 18.1517C17.0668 18.3334 16.6 18.3334 15.6666 18.3334H14.3333C13.3999 18.3334 12.9332 18.3334 12.5766 18.1517C12.263 17.9919 12.0081 17.7369 11.8483 17.4233C11.6666 17.0668 11.6666 16.6001 11.6666 15.6667V12.6667Z" stroke="#757A8A" stroke-width="1.2" stroke-linecap="round" stroke-linejoin="round"/>
</svg>
