<svg width="20" height="20" viewBox="0 0 20 20" fill="none" xmlns="http://www.w3.org/2000/svg">
<path d="M15 9.99998V1.66665L12.7394 2.67133C12.4164 2.81491 12.2549 2.88669 12.0963 2.92798C11.5732 3.06422 11.0173 2.98292 10.5551 2.7026C10.415 2.61766 10.2808 2.50262 10.0124 2.27256V2.27256C9.65631 1.96733 9.47826 1.81472 9.29755 1.71527C8.69716 1.38487 7.96942 1.38487 7.36904 1.71527C7.18832 1.81472 7.01027 1.96733 6.65417 2.27256V2.27256C6.38576 2.50262 6.25156 2.61766 6.11151 2.7026C5.64932 2.98292 5.09334 3.06422 4.57024 2.92798C4.41173 2.88669 4.25021 2.81491 3.92716 2.67133L1.66663 1.66665V11.9333C1.66663 14.1735 1.66663 15.2936 2.1026 16.1493C2.48609 16.9019 3.09802 17.5138 3.85066 17.8973C4.70631 18.3333 5.82642 18.3333 8.06663 18.3333H16.6666M15 9.99998H15.1333C16.2534 9.99998 16.8135 9.99998 17.2413 10.218C17.6176 10.4097 17.9236 10.7157 18.1153 11.092C18.3333 11.5198 18.3333 12.0799 18.3333 13.2V16.6666C18.3333 17.5871 17.5871 18.3333 16.6666 18.3333V18.3333C15.7462 18.3333 15 17.5871 15 16.6666V9.99998ZM9.99996 8.33331H8.33329M8.33329 8.33331H7.91663C7.22627 8.33331 6.66663 8.89296 6.66663 9.58331C6.66663 10.2737 7.22627 10.8333 7.91663 10.8333H8.74996C9.44032 10.8333 9.99996 11.393 9.99996 12.0833C9.99996 12.7737 9.44032 13.3333 8.74996 13.3333H8.33329M8.33329 8.33331V7.49998M8.33329 13.3333H6.66663M8.33329 13.3333V14.1666" stroke="#17181C" stroke-width="1.2" stroke-linecap="round" stroke-linejoin="round"/>
</svg>
