<svg width="18" height="18" viewBox="0 0 18 18" fill="none" xmlns="http://www.w3.org/2000/svg">
<path d="M10.5 13.5C10.5 16.5 12 16.5 12 16.5M12 16.5H12.75M12 16.5H6M5.25 16.5H6M1.5 9.75V9.75C1.5 10.9149 1.5 11.4973 1.6903 11.9567C1.94404 12.5693 2.43072 13.056 3.04329 13.3097C3.50272 13.5 4.08515 13.5 5.25 13.5H7.5M1.5 9.75V5.5C1.5 4.09987 1.5 3.3998 1.77248 2.86502C2.01217 2.39462 2.39462 2.01217 2.86502 1.77248C3.3998 1.5 4.09987 1.5 5.5 1.5H12.5C13.9001 1.5 14.6002 1.5 15.135 1.77248C15.6054 2.01217 15.9878 2.39462 16.2275 2.86502C16.5 3.3998 16.5 4.09987 16.5 5.5V9.75M1.5 9.75H16.5M16.5 9.75V9.75C16.5 10.9149 16.5 11.4973 16.3097 11.9567C16.056 12.5693 15.5693 13.056 14.9567 13.3097C14.4973 13.5 13.9149 13.5 12.75 13.5H7.5M6 16.5C6 16.5 7.5 16.125 7.5 13.5" stroke="#17181C" stroke-width="1.5" stroke-linecap="round" stroke-linejoin="round"/>
</svg>
