<svg width="20" height="20" viewBox="0 0 20 20" fill="none" xmlns="http://www.w3.org/2000/svg">
<path d="M12.5 8.33335C14.3409 8.33335 15.8333 6.84097 15.8333 5.00002C15.8333 3.15907 14.3409 1.66669 12.5 1.66669M14.1666 18.3334H16.5C17.9727 18.3334 19.1666 17.1394 19.1666 15.6667V15.6667C19.1666 13.4575 17.3758 11.6667 15.1666 11.6667H14.1666M9.99998 5.00002C9.99998 6.84097 8.50759 8.33335 6.66665 8.33335C4.8257 8.33335 3.33331 6.84097 3.33331 5.00002C3.33331 3.15907 4.8257 1.66669 6.66665 1.66669C8.50759 1.66669 9.99998 3.15907 9.99998 5.00002ZM3.49998 18.3334H9.83331C11.3061 18.3334 12.5 17.1394 12.5 15.6667V15.6667C12.5 13.4575 10.7091 11.6667 8.49997 11.6667H4.83331C2.62417 11.6667 0.833313 13.4575 0.833313 15.6667V15.6667C0.833313 17.1394 2.02722 18.3334 3.49998 18.3334Z" stroke="#757A8A" stroke-width="1.2" stroke-linecap="round" stroke-linejoin="round"/>
</svg>
