<svg width="20" height="20" viewBox="0 0 20 20" fill="none" xmlns="http://www.w3.org/2000/svg">
<path d="M10 3.33253C9.41923 3.33253 8.84438 3.11443 8.48868 2.65528L8.1119 2.16893C7.60148 1.51007 6.68281 1.32954 5.96102 1.74627L4.87241 2.37478C4.15062 2.79151 3.84762 3.67736 4.163 4.44883L4.39572 5.01809C4.61562 5.55601 4.5181 6.16017 4.22687 6.66307V6.66307C3.93589 7.16552 3.4587 7.55787 2.8834 7.63632L2.27485 7.7193C1.44904 7.83191 0.833374 8.53723 0.833374 9.37068V10.6277C0.833374 11.4612 1.44904 12.1665 2.27485 12.2791L2.88343 12.3621C3.45871 12.4405 3.9359 12.8329 4.22686 13.3353V13.3353C4.51809 13.8382 4.6156 14.4423 4.3957 14.9802L4.16299 15.5495C3.84761 16.321 4.1506 17.2068 4.87239 17.6235L5.96101 18.2521C6.6828 18.6688 7.60146 18.4883 8.11189 17.8294L8.48859 17.3431C8.84431 16.884 9.41919 16.6659 10 16.6659V16.6659V16.6659C10.5809 16.6659 11.1559 16.884 11.5117 17.3432L11.8882 17.8292C12.3986 18.4881 13.3173 18.6686 14.0391 18.2519L15.1277 17.6234C15.8495 17.2067 16.1525 16.3208 15.8371 15.5494L15.6044 14.9801C15.3845 14.4423 15.482 13.8381 15.7732 13.3353V13.3353C16.0642 12.8329 16.5414 12.4405 17.1166 12.3621L17.7252 12.2791C18.551 12.1665 19.1667 11.4612 19.1667 10.6277V9.37068C19.1667 8.53723 18.551 7.83191 17.7252 7.7193L17.1166 7.63631C16.5414 7.55786 16.0642 7.16553 15.7732 6.66309V6.66309C15.482 6.16022 15.3845 5.55608 15.6044 5.01818L15.8371 4.44898C16.1525 3.6775 15.8495 2.79166 15.1277 2.37493L14.0391 1.74642C13.3173 1.32969 12.3986 1.51021 11.8882 2.16908L11.5116 2.65521C11.1558 3.11441 10.5809 3.33253 10 3.33253V3.33253V3.33253Z" stroke="#757A8A" stroke-width="1.2" stroke-linecap="round" stroke-linejoin="round"/>
<path d="M12.5 9.99917C12.5 11.3799 11.3808 12.4992 10 12.4992C8.61933 12.4992 7.50004 11.3799 7.50004 9.99917C7.50004 8.61845 8.61933 7.49917 10 7.49917C11.3808 7.49917 12.5 8.61845 12.5 9.99917Z" stroke="#757A8A" stroke-width="1.2" stroke-linecap="round" stroke-linejoin="round"/>
</svg>
