<svg width="18" height="16" viewBox="0 0 18 16" fill="none" xmlns="http://www.w3.org/2000/svg">
<path d="M9 3.5V14M4.48542 1.46408C6.99131 1.9412 8.48483 2.93923 9 3.51221C9.51517 2.93923 11.0086 1.9412 13.5145 1.46408C14.7841 1.22236 15.4188 1.10151 15.9594 1.56473C16.5 2.02795 16.5 2.78017 16.5 4.28459V9.69125C16.5 11.0668 16.5 11.7546 16.153 12.184C15.8061 12.6134 15.0423 12.7588 13.5145 13.0498C12.1528 13.309 11.09 13.7221 10.3206 14.1373C9.5637 14.5458 9.18525 14.75 9 14.75C8.81475 14.75 8.4363 14.5458 7.6794 14.1373C6.91008 13.7221 5.84725 13.309 4.48542 13.0498C2.95774 12.7588 2.1939 12.6134 1.84695 12.184C1.5 11.7546 1.5 11.0668 1.5 9.69125V4.28459C1.5 2.78017 1.5 2.02795 2.04058 1.56473C2.58118 1.10151 3.21592 1.22236 4.48542 1.46408Z" stroke="#3C40BC" stroke-width="1.5" stroke-linecap="round" stroke-linejoin="round"/>
</svg>
