<svg width="20" height="20" viewBox="0 0 20 20" fill="none" xmlns="http://www.w3.org/2000/svg">
<path d="M11.6667 7.08333C11.6667 7.31345 11.4801 7.5 11.25 7.5C11.0199 7.5 10.8333 7.31345 10.8333 7.08333M11.6667 7.08333C11.6667 6.85321 11.4801 6.66667 11.25 6.66667C11.0199 6.66667 10.8333 6.85321 10.8333 7.08333M11.6667 7.08333L10.8333 7.08333M15.8333 12.5001V12.5001C16.6305 13.0979 17.0291 13.3969 17.3497 13.4662C18.0374 13.6149 18.7361 13.2656 19.0298 12.6261C19.1667 12.3281 19.1667 11.8299 19.1667 10.8334L19.1667 9.16671C19.1667 8.17028 19.1667 7.67206 19.0298 7.374C18.7361 6.73456 18.0374 6.38522 17.3496 6.53394C17.029 6.60327 16.6305 6.9022 15.8333 7.50008V7.50008L15.8333 12.5001ZM7.23333 17.5L9.43333 17.5C11.6735 17.5 12.7936 17.5 13.6493 17.064C14.4019 16.6805 15.0139 16.0686 15.3974 15.316C15.8333 14.4603 15.8333 13.3402 15.8333 11.1L15.8333 8.9C15.8333 6.65979 15.8333 5.53968 15.3974 4.68404C15.0139 3.93139 14.4019 3.31947 13.6493 2.93597C12.7936 2.5 11.6735 2.5 9.43333 2.5L7.23333 2.5C4.99312 2.5 3.87301 2.5 3.01737 2.93597C2.26472 3.31947 1.6528 3.93139 1.2693 4.68404C0.833328 5.53968 0.833328 6.65979 0.833328 8.9L0.833328 11.1C0.833328 13.3402 0.833328 14.4603 1.2693 15.316C1.6528 16.0686 2.26472 16.6805 3.01737 17.064C3.87301 17.5 4.99312 17.5 7.23333 17.5Z" stroke="#17181C" stroke-width="1.2" stroke-linecap="round" stroke-linejoin="round"/>
</svg>
